<svg width="142" height="146" viewBox="0 0 142 146" fill="none" xmlns="http://www.w3.org/2000/svg">
<path d="M70.8978 0.0649414C31.9558 0.0649414 0.324707 10.4142 0.324707 23.1522C0.325301 30.1054 9.94642 36.3784 24.8359 40.6112C19.6682 37.8442 16.6629 34.6437 16.6629 31.1488C16.6629 21.1716 40.9325 12.9725 70.8978 12.9725C100.863 12.9725 125.3 21.1709 125.3 31.1488C125.3 34.6251 122.242 37.8535 117.127 40.6112C131.924 36.3794 141.461 30.0805 141.461 23.1522C141.461 10.4142 109.84 0.0649414 70.8978 0.0649414ZM38.7801 25.0155V34.3611H102.988V25.0155H38.7801ZM40.0786 40.164V105.399H45.6263V40.1643H40.0789L40.0786 40.164ZM51.6939 40.164C51.9011 59.3595 59.2122 70.1116 67.3718 72.4031C59.1048 74.7244 51.704 85.7256 51.6841 105.399H89.7399C89.7203 85.7246 82.3323 74.7272 74.0708 72.4031C82.2254 70.1094 89.5232 59.3608 89.731 40.1643H51.6936L51.6939 40.164ZM95.6124 40.164V105.399H101.16V40.1643H95.6124V40.164ZM24.8359 105.02C9.94672 109.252 0.325004 115.525 0.325004 122.478C0.325004 135.216 31.9558 145.566 70.8981 145.566C109.84 145.566 141.461 135.217 141.461 122.479C141.461 115.551 131.924 109.252 117.127 105.02C122.242 107.778 125.3 110.996 125.3 114.473C125.3 124.45 100.864 132.659 70.8978 132.659C40.9322 132.659 16.6629 124.449 16.6629 114.472C16.6629 110.977 19.6682 107.787 24.8359 105.02V105.02ZM38.7801 111.202V120.538H102.988V111.202H38.7801Z" fill="#011452"/>
</svg>
