<svg width="101" height="102" viewBox="0 0 101 102" fill="none" xmlns="http://www.w3.org/2000/svg">
<path d="M33 41.5L48.325 6.46999C48.6018 5.83701 49.0067 5.26826 49.5143 4.79962C50.0219 4.33097 50.6211 3.97259 51.2741 3.74709C51.9271 3.52159 52.6198 3.43387 53.3084 3.48944C53.997 3.54502 54.6666 3.74269 55.275 4.06999L83 19" stroke="#F37A1F" stroke-width="5.83333" stroke-linecap="round" stroke-linejoin="round"/>
<path d="M58 66.5V19H98V91.5H58V81.5" stroke="#F37A1F" stroke-width="5.83333" stroke-linecap="round" stroke-linejoin="round"/>
<path d="M3 99C25.5 99 27.425 85.7075 33.825 84.7825C41.3825 83.6875 49.08 83.125 55.7575 81.5C61.9445 79.9882 68.0111 78.0204 73.9075 75.6125C74.824 75.2431 75.5808 74.5623 76.045 73.69C77.4525 70.9875 79.975 65.025 75.3025 64.2725C69.2325 63.2975 50.4525 70.4575 40.82 69.155C31.1875 67.855 34.5725 61.345 37.6075 59.39C45.85 54.0875 55.5 56.5 55.5 56.5V34C55.5 34 18.835 43.375 5.5 59.39M73 41.5H98" stroke="#F37A1F" stroke-width="5.83333" stroke-linecap="round" stroke-linejoin="round"/>
</svg>
