<svg width="20" height="21" viewBox="0 0 20 21" fill="none" xmlns="http://www.w3.org/2000/svg">
<path d="M11.0572 3.55737C11.3072 3.30741 11.6463 3.16699 11.9998 3.16699C12.3534 3.16699 12.6925 3.30741 12.9425 3.55737L18.9425 9.55737C19.1925 9.80741 19.3329 10.1465 19.3329 10.5C19.3329 10.8536 19.1925 11.1927 18.9425 11.4427L12.9425 17.4427C12.691 17.6856 12.3542 17.82 12.0046 17.8169C11.655 17.8139 11.3206 17.6737 11.0734 17.4265C10.8262 17.1793 10.686 16.8448 10.6829 16.4952C10.6799 16.1456 10.8143 15.8088 11.0572 15.5574L14.6665 11.8334H1.99984C1.64622 11.8334 1.30708 11.6929 1.05703 11.4429C0.80698 11.1928 0.666504 10.8537 0.666504 10.5C0.666504 10.1464 0.80698 9.80728 1.05703 9.55723C1.30708 9.30718 1.64622 9.16671 1.99984 9.16671H14.6665L11.0572 5.44271C10.8072 5.19267 10.6668 4.85359 10.6668 4.50004C10.6668 4.14649 10.8072 3.80741 11.0572 3.55737Z" fill="white"/>
</svg>
