<svg width="31" height="29" viewBox="0 0 31 29" fill="none" xmlns="http://www.w3.org/2000/svg">
<path d="M21.9815 2.47455L20.735 2.15918L20.0595 4.49126L21.3072 4.80785C22.397 5.08381 23.3905 5.62221 24.1885 6.36935C24.9864 7.1165 25.5611 8.04629 25.8552 9.06601L26.191 10.2321L28.6852 9.60251L28.3494 8.43647C27.9377 7.00868 27.1331 5.70682 26.0157 4.66072C24.8984 3.61461 23.5074 2.86083 21.9815 2.47455ZM20.8009 6.5563L19.5544 6.24093L18.8789 8.57301L20.1267 8.8896C20.4535 8.97242 20.7514 9.13393 20.9907 9.35802C21.2301 9.58212 21.4024 9.86098 21.4907 10.1668L21.8265 11.3328L24.3207 10.7045L23.9849 9.53726C23.779 8.82337 23.3767 8.17244 22.818 7.64939C22.2594 7.12633 21.5639 6.74944 20.8009 6.5563Z" fill="#011452"/>
<path d="M12.374 2.41675H1.29154V3.62508C1.28306 8.27676 2.71705 12.8309 5.41971 16.7355C7.41151 19.6147 10.0325 22.0666 13.1103 23.9299C17.2842 26.4582 22.1524 27.7997 27.1249 27.7917H28.4165V17.4242L19.7753 15.6275L17.3728 17.875C15.1743 16.5535 13.3056 14.8049 11.8935 12.748L14.2947 10.5005L12.374 2.41675Z" fill="#011452"/>
</svg>
