<svg width="96" height="88" viewBox="0 0 96 88" fill="none" xmlns="http://www.w3.org/2000/svg">
<path fill-rule="evenodd" clip-rule="evenodd" d="M38.784 7.51151C39.4967 5.65383 40.8222 4.04537 42.5766 2.909C44.3311 1.77262 46.4277 1.16462 48.576 1.16923H52.8C55.1518 1.16313 57.4339 1.90096 59.2612 3.25819C61.0884 4.61542 62.349 6.50895 62.83 8.61922C63.3111 10.7295 62.9832 12.9273 61.9017 14.8417C60.8202 16.756 59.0514 18.2698 56.8937 19.1275L47.8491 22.7544C47.4627 22.9057 47.147 23.1773 46.9577 23.5212H58.7383C59.8749 23.5212 60.965 23.9351 61.7687 24.6719C62.5725 25.4086 63.024 26.4079 63.024 27.4498C63.024 28.4917 62.5725 29.491 61.7687 30.2277C60.965 30.9645 59.8749 31.3784 58.7383 31.3784H42.4868C41.9235 31.3792 41.3654 31.2782 40.8447 31.0811C40.3239 30.8841 39.8506 30.5948 39.4519 30.2299C39.0533 29.8651 38.737 29.4317 38.5211 28.9546C38.3053 28.4776 38.1943 27.9662 38.1943 27.4498V24.2755C38.1943 20.4915 40.6354 17.0721 44.4137 15.5572L53.4651 11.9304C53.8212 11.7966 54.1149 11.5527 54.2951 11.2411C54.4753 10.9294 54.5307 10.5697 54.4516 10.2245C54.3726 9.87929 54.164 9.57039 53.8623 9.3515C53.5605 9.13261 53.1847 9.01757 52.8 9.02637H48.576C48.2006 9.02248 47.8334 9.12734 47.5268 9.32599C47.2202 9.52464 46.9898 9.80694 46.8685 10.1327C46.6808 10.6193 46.3903 11.0672 46.0137 11.4509C45.6371 11.8346 45.1818 12.1465 44.6736 12.3689C43.6474 12.8181 42.4686 12.8751 41.3965 12.5275C40.8657 12.3554 40.377 12.0891 39.9585 11.7439C39.5399 11.3987 39.1996 10.9813 38.957 10.5155C38.467 9.57482 38.4048 8.49425 38.784 7.51151ZM80.64 2.95437C81.4021 2.15855 82.4107 1.59447 83.5313 1.33727C84.6519 1.08007 85.8315 1.14195 86.9128 1.51468C87.9941 1.8874 88.9259 2.55327 89.584 3.4236C90.2421 4.29393 90.5953 5.32741 90.5965 6.38637V17.9458C91.6895 18.0025 92.7173 18.4405 93.4692 19.1698C94.221 19.8992 94.6399 20.8646 94.6399 21.8681C94.6399 22.8715 94.221 23.837 93.4692 24.5663C92.7173 25.2957 91.6895 25.7336 90.5965 25.7904V27.4561C90.5965 28.498 90.145 29.4973 89.3413 30.234C88.5376 30.9708 87.4475 31.3847 86.3108 31.3847C85.1742 31.3847 84.0841 30.9708 83.2804 30.234C82.4767 29.4973 82.0251 28.498 82.0251 27.4561V25.7967H71.5337C70.4248 25.7984 69.3389 25.5068 68.4065 24.9567C67.474 24.4066 66.7346 23.6215 66.277 22.6956C65.8194 21.7697 65.663 20.7424 65.8268 19.7371C65.9905 18.7317 66.4673 17.7911 67.2 17.0281L80.64 2.95437ZM77.7257 17.9395L82.0251 13.4327V17.9395H77.7257ZM61.1314 86.7429C56.9237 87.1561 52.6886 86.2355 49.1314 84.1344C31.3765 73.1775 16.1015 59.1754 4.14855 42.9001C1.90255 39.6073 0.95642 35.708 1.46807 31.8529C1.97972 27.9979 3.91819 24.4203 6.95998 21.7172L9.56569 19.3287C10.7339 18.2692 12.3109 17.675 13.9543 17.675C15.5976 17.675 17.1746 18.2692 18.3428 19.3287L28.9028 29.3858C30.0544 30.446 30.7009 31.8812 30.7009 33.3772C30.7009 34.8733 30.0544 36.3085 28.9028 37.3687C27.7471 38.4395 27.0988 39.8851 27.0988 41.3915C27.0988 42.8979 27.7471 44.3435 28.9028 45.4144L46.3885 61.4429C47.5568 62.5024 49.1338 63.0966 50.7771 63.0966C52.4205 63.0966 53.9975 62.5024 55.1657 61.4429C56.3223 60.3874 57.8879 59.7948 59.52 59.7948C61.1521 59.7948 62.7177 60.3874 63.8743 61.4429L74.8457 71.4372C76.0014 72.5081 76.6497 73.9537 76.6497 75.4601C76.6497 76.9665 76.0014 78.4121 74.8457 79.4829L72.24 81.8715C69.252 84.6096 65.3322 86.3286 61.1314 86.7429Z" fill="#011452"/>
</svg>
