<svg width="29" height="25" viewBox="0 0 29 25" fill="none" xmlns="http://www.w3.org/2000/svg">
<path fill-rule="evenodd" clip-rule="evenodd" d="M7.22904 0.78956C12.0667 0.33097 16.9333 0.33097 21.771 0.78956L23.8583 0.987894C24.8687 1.08359 25.8192 1.5378 26.5563 2.27714C27.2933 3.01648 27.7737 3.99778 27.92 5.06248C28.599 9.99466 28.599 15.0053 27.92 19.9375C27.7735 21.0019 27.2929 21.9829 26.5559 22.7219C25.8189 23.461 24.8685 23.915 23.8583 24.0106L21.771 24.2089C16.9333 24.6675 12.0667 24.6675 7.22904 24.2089L5.14179 24.0106C4.13155 23.915 3.18119 23.461 2.4442 22.7219C1.70721 21.9829 1.22662 21.0019 1.08004 19.9375C0.401054 15.0053 0.401054 9.99466 1.08004 5.06248C1.22633 3.99778 1.7068 3.01648 2.44382 2.27714C3.18083 1.5378 4.13135 1.08359 5.14179 0.987894L7.22904 0.78956ZM6.05204 4.97498C5.89496 4.88513 5.71857 4.84005 5.54014 4.84417C5.36172 4.84828 5.18735 4.90143 5.03409 4.99843C4.88083 5.09543 4.75393 5.23295 4.6658 5.39755C4.57767 5.56215 4.53132 5.74819 4.53129 5.93748V19.7916C4.53129 20.0817 4.63994 20.3599 4.83334 20.565C5.02673 20.7702 5.28904 20.8854 5.56254 20.8854C5.83605 20.8854 6.09835 20.7702 6.29174 20.565C6.48514 20.3599 6.59379 20.0817 6.59379 19.7916V7.76914L14.0105 12.0041C14.3158 12.1791 14.6843 12.1791 14.9895 12.0041L22.4063 7.76914V19.7916C22.4063 20.0817 22.5149 20.3599 22.7083 20.565C22.9017 20.7702 23.164 20.8854 23.4375 20.8854C23.711 20.8854 23.9733 20.7702 24.1667 20.565C24.3601 20.3599 24.4688 20.0817 24.4688 19.7916V5.93748C24.4688 5.74819 24.4224 5.56215 24.3343 5.39755C24.2462 5.23295 24.1192 5.09543 23.966 4.99843C23.8127 4.90143 23.6384 4.84828 23.4599 4.84417C23.2815 4.84005 23.1051 4.88513 22.948 4.97498L14.5 9.79914L6.05204 4.97498Z" fill="#F37A1F"/>
</svg>
