<svg width="90" height="80" viewBox="0 0 90 80" fill="none" xmlns="http://www.w3.org/2000/svg">
<path d="M70 80V15H81.925C84.225 15 86.145 15.7717 87.685 17.315C89.225 18.8583 89.9967 20.78 90 23.08V71.925C90 74.225 89.2283 76.1467 87.685 77.69C86.1417 79.2333 84.2217 80.0033 81.925 80H70ZM35 15H55V8.07499C55 7.30833 54.68 6.60333 54.04 5.96C53.4 5.31666 52.695 4.99666 51.925 5H38.075C37.3083 5 36.6033 5.32 35.96 5.96C35.3167 6.6 34.9967 7.30499 35 8.07499V15ZM25 80V15H30V8.07499C30 5.77499 30.7717 3.85333 32.315 2.30999C33.8583 0.766662 35.78 -0.00333782 38.08 -4.48292e-06H51.925C54.225 -4.48292e-06 56.1467 0.769995 57.69 2.30999C59.2333 3.84999 60.0033 5.77166 60 8.07499V15H65V80H25ZM8.08 80C5.77667 80 3.855 79.23 2.315 77.69C0.775 76.15 0.00333333 74.2267 0 71.92V23.08C0 20.7767 0.771667 18.855 2.315 17.315C3.85833 15.775 5.77833 15.0033 8.075 15H20V80H8.08Z" fill="#F37A1F"/>
</svg>
