<svg width="28" height="26" viewBox="0 0 28 26" fill="none" xmlns="http://www.w3.org/2000/svg">
<path d="M19.1441 16.8212L18.4806 17.4819C18.4806 17.4819 16.9012 19.051 12.5918 14.7664C8.28245 10.4819 9.86182 8.9127 9.86182 8.9127L10.2789 8.49562C11.3099 7.47187 11.4077 5.82687 10.5079 4.6252L8.67036 2.17082C7.5562 0.683324 5.40516 0.486449 4.12911 1.7552L1.83953 4.0302C1.20807 4.6602 0.785155 5.47395 0.836196 6.37812C0.967446 8.69249 2.01453 13.6698 7.8537 19.4769C14.0472 25.6339 19.8587 25.8789 22.2343 25.6573C22.9868 25.5873 23.6402 25.2052 24.1666 24.6802L26.2374 22.621C27.6374 21.2312 27.2437 18.8469 25.4529 17.8742L22.6674 16.3589C21.492 15.7217 20.0629 15.9083 19.1441 16.8212Z" fill="#F37A1F"/>
</svg>
