<svg width="21" height="31" viewBox="0 0 21 31" fill="none" xmlns="http://www.w3.org/2000/svg">
<path d="M10.4998 14.7709C9.5329 14.7709 8.60557 14.3867 7.92184 13.703C7.23812 13.0193 6.854 12.092 6.854 11.125C6.854 10.1581 7.23812 9.23075 7.92184 8.54703C8.60557 7.8633 9.5329 7.47919 10.4998 7.47919C11.4668 7.47919 12.3941 7.8633 13.0778 8.54703C13.7616 9.23075 14.1457 10.1581 14.1457 11.125C14.1457 11.6038 14.0514 12.0779 13.8681 12.5202C13.6849 12.9626 13.4164 13.3645 13.0778 13.703C12.7393 14.0416 12.3374 14.3101 11.895 14.4933C11.4527 14.6766 10.9786 14.7709 10.4998 14.7709ZM10.4998 0.916687C7.79242 0.916687 5.19589 1.9922 3.28146 3.90664C1.36702 5.82107 0.291504 8.4176 0.291504 11.125C0.291504 18.7813 10.4998 30.0834 10.4998 30.0834C10.4998 30.0834 20.7082 18.7813 20.7082 11.125C20.7082 8.4176 19.6327 5.82107 17.7182 3.90664C15.8038 1.9922 13.2073 0.916687 10.4998 0.916687Z" fill="#F37A1F"/>
</svg>
