<svg width="96" height="72" viewBox="0 0 96 72" fill="none" xmlns="http://www.w3.org/2000/svg">
<path d="M16.5 0C12.1239 0 7.92709 1.73839 4.83274 4.83274C1.73839 7.92709 0 12.1239 0 16.5V24H96V16.5C96 12.1239 94.2616 7.92709 91.1673 4.83274C88.0729 1.73839 83.8761 0 79.5 0H16.5ZM96 30H0V55.5C0 59.8761 1.73839 64.0729 4.83274 67.1673C7.92709 70.2616 12.1239 72 16.5 72H79.5C83.8761 72 88.0729 70.2616 91.1673 67.1673C94.2616 64.0729 96 59.8761 96 55.5V30ZM69 54H81C81.7956 54 82.5587 54.3161 83.1213 54.8787C83.6839 55.4413 84 56.2043 84 57C84 57.7957 83.6839 58.5587 83.1213 59.1213C82.5587 59.6839 81.7956 60 81 60H69C68.2044 60 67.4413 59.6839 66.8787 59.1213C66.3161 58.5587 66 57.7957 66 57C66 56.2043 66.3161 55.4413 66.8787 54.8787C67.4413 54.3161 68.2044 54 69 54Z" fill="#F37A1F"/>
</svg>
