<svg width="144" height="159" viewBox="0 0 144 159" fill="none" xmlns="http://www.w3.org/2000/svg">
<path d="M143.155 45.2157V124.696C143.108 125.659 142.842 126.597 142.381 127.432C141.92 128.267 141.276 128.975 140.502 129.499L138.013 131.056C125.593 138.575 114.662 145.194 103.616 151.858V65.9056L32.4739 22.8829C44.7859 15.4894 57.0535 8.02299 69.3782 0.662618C70.2003 0.22927 71.1081 0.00354004 72.0287 0.00354004C72.9493 0.00354004 73.8571 0.22927 74.6792 0.662618L143.143 42.0225V45.2157H143.155ZM87.7955 75.439C71.557 65.6173 55.3141 55.8035 39.0669 45.9975C38.2433 45.5692 37.3361 45.3463 36.4164 45.3463C35.4966 45.3463 34.5894 45.5692 33.7659 45.9975C22.7881 52.6225 11.8124 59.2563 0.838867 65.899L52.2212 96.9305V159C63.1905 152.382 74.1345 145.71 85.1355 139.158C85.9052 138.631 86.5462 137.923 87.007 137.09C87.4678 136.257 87.7357 135.322 87.7892 134.362L87.7955 75.439ZM0.8452 127.975L36.3942 149.447V106.464L0.8452 127.975Z" fill="#011452"/>
</svg>
