<svg width="120" height="153" viewBox="0 0 120 153" fill="none" xmlns="http://www.w3.org/2000/svg">
<path fill-rule="evenodd" clip-rule="evenodd" d="M55.32 1.36499C58.3375 0.177329 61.6625 0.177329 64.68 1.36499L111.347 19.74C113.889 20.7405 116.079 22.532 117.626 24.8749C119.172 27.2178 120 30.0005 120 32.851V70.392C120 82.092 116.898 93.5609 111.04 103.514C105.182 113.466 96.7997 121.509 86.8333 126.742L64.4733 138.481C63.0845 139.21 61.5529 139.59 60 139.59C58.4471 139.59 56.9155 139.21 55.5267 138.481L33.1667 126.742C23.2003 121.509 14.8184 113.466 8.96046 103.514C3.10247 93.5609 -0.000240211 82.092 1.03452e-07 70.392V32.851C-0.000337989 30.0005 0.828026 27.2178 2.37435 24.8749C3.92068 22.532 6.11129 20.7405 8.65333 19.74L55.32 1.36499ZM60 14.476L13.3333 32.851V70.392C13.3349 79.4911 15.7493 88.41 20.3061 96.1495C24.8629 103.889 31.3821 110.143 39.1333 114.212L60 125.181V14.476Z" fill="#011452"/>
</svg>
