<svg width="94" height="94" viewBox="0 0 94 94" fill="none" xmlns="http://www.w3.org/2000/svg">
<path d="M90.125 0.125H3.875C1.80078 0.125 0.125 1.80078 0.125 3.875V90.125C0.125 92.1992 1.80078 93.875 3.875 93.875H46.0625C46.5781 93.875 47 93.4531 47 92.9375V86.375C47 85.8594 46.5781 85.4375 46.0625 85.4375H8.5625V8.5625H85.4375V46.0625C85.4375 46.5781 85.8594 47 86.375 47H92.9375C93.4531 47 93.875 46.5781 93.875 46.0625V3.875C93.875 1.80078 92.1992 0.125 90.125 0.125ZM63.5586 57.2422L69.6758 51.125C69.7997 51.0005 69.8862 50.8437 69.9254 50.6724C69.9646 50.5012 69.955 50.3223 69.8976 50.1563C69.8402 49.9903 69.7374 49.8436 69.6008 49.7332C69.4642 49.6227 69.2994 49.5527 69.125 49.5312L48.1016 47.0703C47.5039 47 46.9883 47.5039 47.0586 48.1133L49.5195 69.1367C49.6133 69.9102 50.5625 70.2383 51.1133 69.6875L57.2539 63.5469L87.2773 93.5703C87.6406 93.9336 88.2383 93.9336 88.6016 93.5703L93.5703 88.6016C93.9336 88.2383 93.9336 87.6406 93.5703 87.2773L63.5586 57.2422Z" fill="#F37A1F"/>
</svg>
