<svg width="140" height="147" viewBox="0 0 140 147" fill="none" xmlns="http://www.w3.org/2000/svg">
<path d="M127 47C130.36 47 133.581 48.3959 135.957 50.8808C138.332 53.3656 139.667 56.7358 139.667 60.2499V86.7499C139.667 90.2641 138.332 93.6343 135.957 96.1191C133.581 98.604 130.36 99.9999 127 99.9999H120.274C118.731 112.809 112.773 124.588 103.516 133.127C94.2594 141.665 82.3418 146.376 70.0002 146.375V133.125C80.0784 133.125 89.7439 128.937 96.8702 121.482C103.997 114.028 108 103.917 108 93.3749V53.625C108 43.0826 103.997 32.972 96.8702 25.5175C89.7439 18.0629 80.0784 13.8749 70.0002 13.8749C59.9219 13.8749 50.2565 18.0629 43.1301 25.5175C36.0037 32.972 32.0002 43.0826 32.0002 53.625V99.9999H13.0002C9.64075 99.9999 6.41894 98.604 4.04348 96.1191C1.66802 93.6343 0.333496 90.2641 0.333496 86.7499V60.2499C0.333496 56.7358 1.66802 53.3656 4.04348 50.8808C6.41894 48.3959 9.64075 47 13.0002 47H19.7262C21.2717 34.1931 27.2317 22.4164 36.4878 13.8794C45.7439 5.34247 57.66 0.63208 70.0002 0.63208C82.3403 0.63208 94.2564 5.34247 103.513 13.8794C112.769 22.4164 118.729 34.1931 120.274 47H127ZM43.1468 98.5756L49.8602 87.3396C55.896 91.2956 62.8774 93.3877 70.0002 93.3749C77.1229 93.3877 84.1043 91.2956 90.1402 87.3396L96.8535 98.5756C88.8059 103.851 79.4974 106.641 70.0002 106.625C60.5029 106.641 51.1944 103.851 43.1468 98.5756Z" fill="#F37A1F"/>
</svg>
